#!OML:ASF E:\Steps\Project 1\Capture day 1\Session 2\Subject.ASF
:FULLY-SPECIFIED
:DEGREES
279
root -1.25887 18.0074 20.9501 -151.83 2.54421 178.587
lowerback -24.3542 -3.65921 -6.22547
upperback 0.557255 -2.7393 -0.299683
thorax 14.6903 -1.57868 2.24996
lowerneck -2.57982 1.52116 -3.30325
upperneck 7.79293 2.283 1.19444
head 2.88199 1.14258 1.0341
rclavicle -2.94201e-014 -7.15625e-015
rhumerus -38.1435 -11.9454 -83.0922
rradius 38.7412
rwrist -6.70583
rhand -9.67549 -53.4709
rfingers 7.12502
rthumb 16.2961 -442.806
lclavicle -2.94201e-014 -7.15625e-015
lhumerus -28.6108 -0.214245 81.2177
lradius 26.28
lwrist -2.06464
lhand -23.7014 -14.5767
lfingers 7.12502
lthumb 2.76571 15.3851
rfemur -29.5327 8.51932 18.3613
rtibia 10.9494
rfoot -18.3066 -3.02321
rtoes -25.1273
lfemur -29.4729 -7.61912 -22.4516
ltibia 12.6697
lfoot -8.59398 -0.526139
ltoes -33.4667
280
root -1.24851 18.0108 20.9561 -151.944 2.58344 178.623
lowerback -23.9876 -3.70042 -6.27617
upperback 0.589173 -2.82596 -0.252231
thorax 14.5332 -1.62763 2.31215
lowerneck -2.57983 1.56033 -3.41072
upperneck 7.73521 2.33582 1.22669
head 2.86001 1.16624 1.06401
rclavicle 1.98785e-015 -1.59028e-014
rhumerus -38.1477 -11.5353 -83.2132
rradius 38.8393
rwrist -7.07293
rhand -8.60234 -56.4764
rfingers 7.12502
rthumb 17.3292 -445.724
lclavicle 1.98785e-015 -1.59028e-014
lhumerus -28.6096 -0.205739 81.1708
lradius 26.5104
lwrist -1.92067
lhand -23.7086 -14.37
lfingers 7.12502
lthumb 2.75882 15.592
rfemur -29.3254 8.89058 18.3634
rtibia 10.7509
rfoot -18.1836 -3.28993
rtoes -25.4378
lfemur -29.5026 -7.84661 -22.292
ltibia 12.976
lfoot -8.79411 -0.0185128
ltoes -34.4783
281
root -1.24373 18.0115 20.9606 -152.02 2.53926 178.638
lowerback -23.9717 -3.70539 -6.15602
upperback 0.77987 -2.87389 -0.289907
thorax 14.7472 -1.653 2.17549
lowerneck -2.62733 1.61077 -3.46182
upperneck 7.58433 2.39284 1.30297
head 2.8152 1.19359 1.09778
rclavicle 8.54774e-015 -3.18055e-015
rhumerus -37.9125 -11.5483 -83.2279
rradius 38.6426
rwrist -6.68226
rhand -9.68387 -53.1043
rfingers 7.12502
rthumb 16.2881 -442.44
lclavicle 8.54774e-015 -3.18055e-015
lhumerus -28.3255 -0.220196 81.0338
lradius 26.6388
lwrist -1.78847
lhand -23.4919 -14.4263
lfingers 7.12502
lthumb 2.96807 15.5328
rfemur -29.196 8.93891 18.4144
rtibia 10.7433
rfoot -18.2509 -3.37778
rtoes -25.5733
lfemur -29.6521 -8.20383 -22.1353
ltibia 13.4348
lfoot -9.00332 0.242112
ltoes -34.126
282
root -1.24038 18.0109 20.9643 -151.987 2.51574 178.638
lowerback -24.1276 -3.69661 -6.06084
upperback 0.94629 -2.87267 -0.355099
thorax 15.0266 -1.65314 2.03425
lowerneck -2.61415 1.59181 -3.36664
upperneck 7.3743 2.36193 1.16617
head 2.74449 1.17473 1.03257
rclavicle 1.45113e-014 0
rhumerus -37.7487 -11.5672 -83.3274
rradius 38.5354
rwrist -6.6522
rhand -9.69338 -51.8791
rfingers 7.12502
rthumb 16.2789 -441.216
lclavicle 1.45113e-014 0
lhumerus -28.0986 -0.448829 80.8996
lradius 26.8279
lwrist -1.81457
lhand -23.6319 -14.564
lfingers 7.12502
lthumb 2.83282 15.3969
rfemur -29.2189 8.96566 18.3963
rtibia 10.7485
rfoot -18.3866 -3.38861
rtoes -25.3828
lfemur -29.9185 -8.61866 -21.9863
ltibia 13.8766
lfoot -9.27212 0.367489
ltoes -33.3026
283
root -1.23316 18.0108 20.9707 -151.887 2.61917 178.808
lowerback -23.9083 -3.6068 -5.88928
upperback 0.845499 -2.81896 -0.360675
thorax 14.764 -1.60876 1.9621
lowerneck -2.53005 1.5452 -3.34127
upperneck 7.45255 2.30514 1.11488
head 2.75733 1.14714 1.00977
rclavicle 2.74323e-014 -2.38542e-014
rhumerus -37.9685 -11.4185 -83.3673
rradius 38.4935
rwrist -7.10424
rhand -8.2158 -55.5709
rfingers 7.12502
rthumb 17.7012 -444.785
lclavicle 2.74323e-014 -2.38542e-014
lhumerus -28.3333 -0.811027 80.802
lradius 27.1993
lwrist -1.66738
lhand -23.6372 -14.6691
lfingers 7.12502
lthumb 2.82776 15.2919
rfemur -29.3494 9.25157 18.4886
rtibia 10.6746
rfoot -18.3349 -3.35965
rtoes -24.6782
lfemur -30.3268 -8.85883 -21.6658
ltibia 14.4293
lfoot -9.65042 0.633607
ltoes -33.1083
284
root -1.22634 18.0113 20.9818 -151.781 2.81937 179.084
lowerback -23.6878 -3.44877 -5.63575
upperback 0.756238 -2.70353 -0.344327
thorax 14.5068 -1.53384 1.89001
lowerneck -2.40137 1.50953 -3.33328
upperneck 7.56198 2.25302 1.22203
head 2.7708 1.12698 1.04115
rclavicle -1.35174e-014 9.54166e-015
rhumerus -38.155 -11.3768 -83.3361
rradius 38.482
rwrist -7.66923
rhand -8.74813 -55.4291
rfingers 7.12502
rthumb 17.1889 -444.689
lclavicle -1.35174e-014 9.54166e-015
lhumerus -28.4745 -1.08616 80.7336
lradius 27.5373
lwrist -1.52089
lhand -23.5256 -14.5678
lfingers 7.12502
lthumb 2.93551 15.3917
rfemur -29.5732 9.25913 18.8007
rtibia 10.7434
rfoot -18.2841 -3.04373
rtoes -24.5551
lfemur -30.7757 -9.1843 -21.1643
ltibia 14.9613
lfoot -9.96792 1.16636
ltoes -32.2668
